# 3ds Max Wavefront OBJ Exporter v0.97b - (c)2007 guruware
# 创建的文件:04.02.2018 16:10:52

mtllib shell_pack_01_uvw2(shotgun01 machinegun01).mtl

#
# object shotgun_shell_01_uvw2
#

v  0.0594 0.0343 0.1008
v  0.0685 0.0000 0.1008
v  0.0685 0.0000 -0.1008
v  0.0594 0.0343 -0.1008
v  0.0342 0.0594 0.1008
v  0.0342 0.0594 -0.1008
v  0.0001 0.0686 0.1008
v  0.0001 0.0686 -0.1008
v  -0.0342 0.0594 0.1008
v  -0.0342 0.0594 -0.1008
v  -0.0593 0.0343 0.1008
v  -0.0593 0.0343 -0.1008
v  -0.0685 0.0000 0.1008
v  -0.0685 0.0000 -0.1008
v  -0.0593 -0.0343 0.1008
v  -0.0593 -0.0343 -0.1008
v  -0.0342 -0.0594 -0.1008
v  -0.0342 -0.0594 0.1008
v  0.0001 -0.0686 -0.1008
v  0.0001 -0.0686 0.1008
v  0.0342 -0.0594 0.1008
v  0.0342 -0.0594 -0.1008
v  0.0594 -0.0343 -0.1008
v  0.0594 -0.0343 0.1008
v  0.0583 0.0000 0.0692
v  0.0292 -0.0504 0.0692
v  0.0001 -0.0582 0.0692
v  -0.0290 -0.0504 0.0692
v  -0.0582 0.0000 0.0692
v  -0.0290 0.0504 0.0692
v  -0.0504 -0.0291 0.0692
v  -0.0504 0.0291 0.0692
v  0.0001 0.0582 0.0692
v  0.0292 0.0504 0.0692
v  0.0504 0.0291 0.0692
v  0.0504 -0.0291 0.0692
v  0.0583 0.0000 -0.1008
v  0.0504 0.0291 -0.1008
v  0.0504 -0.0291 -0.1008
v  0.0292 -0.0504 -0.1008
v  0.0001 -0.0582 -0.1008
v  -0.0290 -0.0504 -0.1008
v  -0.0504 -0.0291 -0.1008
v  -0.0582 0.0000 -0.1008
v  -0.0504 0.0291 -0.1008
v  -0.0290 0.0504 -0.1008
v  0.0001 0.0582 -0.1008
v  0.0292 0.0504 -0.1008
# 48 vertices

vn 0.8660 0.5000 -0.0000
vn 1.0000 0.0000 -0.0000
vn 0.5000 0.8660 -0.0000
vn 0.0000 1.0000 -0.0000
vn -0.5000 0.8660 -0.0000
vn -0.8660 0.5000 -0.0000
vn -1.0000 0.0000 -0.0000
vn -0.8660 -0.5000 -0.0000
vn -0.5000 -0.8660 -0.0000
vn 0.0000 -1.0000 -0.0000
vn 0.5000 -0.8660 -0.0000
vn 0.8660 -0.5000 -0.0000
vn 0.0000 0.0000 -1.0000
vn 0.0000 0.0000 1.0000
vn -0.9659 -0.2588 -0.0000
vn -0.9659 0.2588 -0.0000
vn -0.7071 0.7071 -0.0000
vn -0.2588 0.9659 -0.0000
vn 0.2588 0.9659 -0.0000
vn 0.7071 0.7071 -0.0000
vn 0.9659 0.2588 -0.0000
vn 0.9659 -0.2588 -0.0000
vn 0.7071 -0.7071 -0.0000
vn 0.2588 -0.9659 -0.0000
vn -0.2588 -0.9659 -0.0000
vn -0.7071 -0.7071 -0.0000
# 26 vertex normals

vt 0.0131 0.5112 0.0000
vt 0.0130 0.4510 0.0000
vt 0.3552 0.4507 0.0000
vt 0.3552 0.5110 0.0000
vt 0.0131 0.5716 0.0000
vt 0.3552 0.5713 0.0000
vt 0.0132 0.6315 0.0000
vt 0.3553 0.6313 0.0000
vt 0.0132 0.6918 0.0000
vt 0.3553 0.6915 0.0000
vt 0.0132 0.7520 0.0000
vt 0.3554 0.7518 0.0000
vt 0.0133 0.8123 0.0000
vt 0.3554 0.8120 0.0000
vt 0.0133 0.8726 0.0000
vt 0.3555 0.8723 0.0000
vt 0.3555 0.9326 0.0000
vt 0.0134 0.9328 0.0000
vt 0.3555 0.9928 0.0000
vt 0.0134 0.9931 0.0000
vt 0.0129 0.3304 0.0000
vt 0.0129 0.2705 0.0000
vt 0.3550 0.2702 0.0000
vt 0.3551 0.3302 0.0000
vt 0.3551 0.3905 0.0000
vt 0.0130 0.3908 0.0000
vt 0.7743 0.4120 0.0000
vt 0.8237 0.3265 0.0000
vt 0.8731 0.3132 0.0000
vt 0.9224 0.3265 0.0000
vt 0.9720 0.4120 0.0000
vt 0.9224 0.4975 0.0000
vt 0.9588 0.3626 0.0000
vt 0.9588 0.4614 0.0000
vt 0.8731 0.5108 0.0000
vt 0.8237 0.4975 0.0000
vt 0.7877 0.4614 0.0000
vt 0.7877 0.3626 0.0000
vt 0.8016 0.5321 0.0000
vt 0.8598 0.5163 0.0000
vt 0.9605 0.5744 0.0000
vt 0.7591 0.5747 0.0000
vt 0.9177 0.5319 0.0000
vt 0.9607 0.6908 0.0000
vt 0.8601 0.7492 0.0000
vt 0.9760 0.6326 0.0000
vt 0.9180 0.7335 0.0000
vt 0.8019 0.7337 0.0000
vt 0.7593 0.6911 0.0000
vt 0.7435 0.6330 0.0000
vt 0.7521 0.8732 0.0000
vt 0.7695 0.8732 0.0000
vt 0.7829 0.9226 0.0000
vt 0.7676 0.9315 0.0000
vt 0.7829 0.8239 0.0000
vt 0.7676 0.8150 0.0000
vt 0.8188 0.7877 0.0000
vt 0.8104 0.7724 0.0000
vt 0.8682 0.7745 0.0000
vt 0.8682 0.7568 0.0000
vt 0.9264 0.7724 0.0000
vt 0.9176 0.7877 0.0000
vt 0.9690 0.8150 0.0000
vt 0.9539 0.8239 0.0000
vt 0.9846 0.8732 0.0000
vt 0.9672 0.8732 0.0000
vt 0.9690 0.9315 0.0000
vt 0.9539 0.9226 0.0000
vt 0.9264 0.9741 0.0000
vt 0.9176 0.9588 0.0000
vt 0.8682 0.9720 0.0000
vt 0.8682 0.9897 0.0000
vt 0.8104 0.9741 0.0000
vt 0.8188 0.9588 0.0000
vt 0.8843 0.0169 0.0000
vt 0.8866 0.3054 0.0000
vt 0.8355 0.3058 0.0000
vt 0.8331 0.0173 0.0000
vt 0.7843 0.3062 0.0000
vt 0.7820 0.0177 0.0000
vt 0.7310 0.0181 0.0000
vt 0.7333 0.3066 0.0000
vt 0.6798 0.0185 0.0000
vt 0.6822 0.3070 0.0000
vt 0.6310 0.3074 0.0000
vt 0.6287 0.0190 0.0000
vt 0.5775 0.0194 0.0000
vt 0.5798 0.3079 0.0000
vt 0.5263 0.0198 0.0000
vt 0.5286 0.3083 0.0000
vt 0.4775 0.3087 0.0000
vt 0.4752 0.0202 0.0000
vt 0.4240 0.0206 0.0000
vt 0.4263 0.3091 0.0000
vt 0.3752 0.3095 0.0000
vt 0.3728 0.0210 0.0000
vt 0.9353 0.0165 0.0000
vt 0.9864 0.0161 0.0000
vt 0.9888 0.3046 0.0000
vt 0.9376 0.3050 0.0000
# 100 texture coords

g shotgun_shell_01_uvw2
usemtl wire_086086086
s 1
f 1/1/1 2/2/2 3/3/2 4/4/1 
f 5/5/3 1/1/1 4/4/1 6/6/3 
f 7/7/4 5/5/3 6/6/3 8/8/4 
f 9/9/5 7/7/4 8/8/4 10/10/5 
f 11/11/6 9/9/5 10/10/5 12/12/6 
f 13/13/7 11/11/6 12/12/6 14/14/7 
f 15/15/8 13/13/7 14/14/7 16/16/8 
f 16/16/8 17/17/9 18/18/9 15/15/8 
f 17/17/9 19/19/10 20/20/10 18/18/9 
f 21/21/11 20/22/10 19/23/10 22/24/11 
f 23/25/12 24/26/12 21/21/11 22/24/11 
f 24/26/12 23/25/12 3/3/2 2/2/2 
f 25/27/13 26/28/13 27/29/13 28/30/13 
f 29/31/13 30/32/13 25/27/13 28/30/13 
f 28/30/13 31/33/13 29/31/13 
f 29/31/13 32/34/13 30/32/13 
f 33/35/13 34/36/13 25/27/13 30/32/13 
f 34/36/13 35/37/13 25/27/13 
f 26/28/13 25/27/13 36/38/13 
s 2
f 18/39/14 20/40/14 24/41/14 15/42/14 
f 20/40/14 21/43/14 24/41/14 
f 1/44/14 7/45/14 15/42/14 24/41/14 
f 24/41/14 2/46/14 1/44/14 
f 1/44/14 5/47/14 7/45/14 
f 7/45/14 9/48/14 11/49/14 15/42/14 
f 15/42/14 11/49/14 13/50/14 
f 3/51/13 37/52/13 38/53/13 4/54/13 
f 39/55/13 37/52/13 3/51/13 23/56/13 
f 40/57/13 39/55/13 23/56/13 22/58/13 
f 41/59/13 40/57/13 22/58/13 19/60/13 
f 41/59/13 19/60/13 17/61/13 42/62/13 
f 42/62/13 17/61/13 16/63/13 43/64/13 
f 43/64/13 16/63/13 14/65/13 44/66/13 
f 44/66/13 14/65/13 12/67/13 45/68/13 
f 45/68/13 12/67/13 10/69/13 46/70/13 
f 47/71/13 46/70/13 10/69/13 8/72/13 
f 6/73/13 48/74/13 47/71/13 8/72/13 
f 6/73/13 4/54/13 38/53/13 48/74/13 
s 4
f 35/75/15 38/76/15 37/77/15 25/78/15 
f 37/77/16 39/79/16 36/80/16 25/78/16 
f 26/81/17 36/80/17 39/79/17 40/82/17 
f 27/83/18 26/81/18 40/82/18 41/84/18 
f 42/85/19 28/86/19 27/83/19 41/84/19 
f 31/87/20 28/86/20 42/85/20 43/88/20 
f 29/89/21 31/87/21 43/88/21 44/90/21 
f 29/89/22 44/90/22 45/91/22 32/92/22 
f 30/93/23 32/92/23 45/91/23 46/94/23 
f 30/93/24 46/94/24 47/95/24 33/96/24 
f 34/97/25 33/98/25 47/99/25 48/100/25 
f 38/76/26 35/75/26 34/97/26 48/100/26 
# 42 polygons - 8 triangles

#
# object machinegun_shell_01_uvw2
#

v  0.2057 0.0247 0.1461
v  0.2159 0.0000 0.1461
v  0.2159 0.0000 -0.1020
v  0.2057 0.0247 -0.1020
v  0.1809 0.0350 0.1461
v  0.1809 0.0350 -0.1020
v  0.1562 0.0247 0.1461
v  0.1562 0.0247 -0.1020
v  0.1459 0.0000 0.1461
v  0.1459 0.0000 -0.1020
v  0.1562 -0.0248 0.1461
v  0.1562 -0.0248 -0.1020
v  0.1809 -0.0350 0.1461
v  0.1809 -0.0350 -0.1020
v  0.2057 -0.0248 0.1461
v  0.2057 -0.0248 -0.1020
v  0.1809 -0.0242 0.0539
v  0.1638 -0.0171 0.0539
v  0.1567 0.0000 0.0539
v  0.2051 0.0000 0.0539
v  0.1638 0.0171 0.0539
v  0.1809 0.0242 0.0539
v  0.1980 0.0171 0.0539
v  0.1980 -0.0171 0.0539
v  0.2105 0.0000 -0.1461
v  0.2018 0.0209 -0.1461
v  0.2018 -0.0209 -0.1461
v  0.1809 -0.0296 -0.1461
v  0.1600 -0.0209 -0.1461
v  0.1513 0.0000 -0.1461
v  0.1600 0.0209 -0.1461
v  0.1809 0.0296 -0.1461
v  0.2051 0.0000 -0.1461
v  0.1980 0.0171 -0.1461
v  0.1980 -0.0171 -0.1461
v  0.1809 -0.0242 -0.1461
v  0.1638 -0.0171 -0.1461
v  0.1567 0.0000 -0.1461
v  0.1638 0.0171 -0.1461
v  0.1809 0.0242 -0.1461
# 40 vertices

vn 0.7078 0.7064 -0.0000
vn 1.0000 0.0007 -0.0000
vn 0.9982 0.0004 -0.0604
vn 0.7065 0.7051 -0.0602
vn -0.0007 1.0000 -0.0000
vn -0.0006 0.9982 -0.0601
vn -0.7071 0.7071 -0.0000
vn -0.7058 0.7059 -0.0598
vn -1.0000 0.0007 -0.0000
vn -0.9982 0.0007 -0.0599
vn -0.7064 -0.7078 -0.0000
vn -0.7049 -0.7067 -0.0604
vn -0.0007 -1.0000 -0.0000
vn -0.0009 -0.9982 -0.0603
vn 0.7071 -0.7071 -0.0000
vn 0.7060 -0.7056 -0.0609
vn 0.0000 0.0000 -1.0000
vn 0.0000 0.0000 1.0000
vn 0.9925 -0.0005 -0.1221
vn 0.7014 0.7022 -0.1224
vn 0.7023 -0.7012 -0.1232
vn -0.0008 -0.9925 -0.1224
vn -0.7018 -0.7019 -0.1219
vn -0.9926 0.0001 -0.1217
vn -0.7018 0.7020 -0.1211
vn -0.0001 0.9926 -0.1214
vn -0.9236 -0.3835 -0.0000
vn -0.7071 -0.7071 -0.0000
vn -0.9236 0.3835 -0.0000
vn 0.0000 1.0000 -0.0000
vn 0.7071 0.7071 -0.0000
vn 0.9236 0.3835 -0.0000
vn 0.9236 -0.3835 -0.0000
vn 0.3835 -0.9236 -0.0000
vn -0.3835 -0.9236 -0.0000
# 35 vertex normals

vt 0.5067 0.9899 0.0000
vt 0.4607 0.9886 0.0000
vt 0.4694 0.5678 0.0000
vt 0.5130 0.5690 0.0000
vt 0.5530 0.9906 0.0000
vt 0.5566 0.5697 0.0000
vt 0.5991 0.9907 0.0000
vt 0.6001 0.5698 0.0000
vt 0.6452 0.9901 0.0000
vt 0.6437 0.5693 0.0000
vt 0.6912 0.9889 0.0000
vt 0.6880 0.5681 0.0000
vt 0.7367 0.9879 0.0000
vt 0.7327 0.5654 0.0000
vt 0.4148 0.9865 0.0000
vt 0.3691 0.9847 0.0000
vt 0.3804 0.5624 0.0000
vt 0.4253 0.5658 0.0000
vt 0.4323 0.3696 0.0000
vt 0.4613 0.3816 0.0000
vt 0.4733 0.4107 0.0000
vt 0.3912 0.4107 0.0000
vt 0.4613 0.4397 0.0000
vt 0.4323 0.4517 0.0000
vt 0.4032 0.4397 0.0000
vt 0.4032 0.3816 0.0000
vt 0.6298 0.3831 0.0000
vt 0.6124 0.4252 0.0000
vt 0.5704 0.4425 0.0000
vt 0.5704 0.3237 0.0000
vt 0.5284 0.4252 0.0000
vt 0.5110 0.3831 0.0000
vt 0.5284 0.3412 0.0000
vt 0.6124 0.3412 0.0000
vt 0.4735 0.4928 0.0000
vt 0.5152 0.4939 0.0000
vt 0.4328 0.4910 0.0000
vt 0.3937 0.4867 0.0000
vt 0.6817 0.4931 0.0000
vt 0.7208 0.4895 0.0000
vt 0.6409 0.4943 0.0000
vt 0.5993 0.4946 0.0000
vt 0.5572 0.4944 0.0000
vt 0.6452 0.4090 0.0000
vt 0.6544 0.4090 0.0000
vt 0.6664 0.4381 0.0000
vt 0.6600 0.4445 0.0000
vt 0.6600 0.3736 0.0000
vt 0.6664 0.3800 0.0000
vt 0.6954 0.3588 0.0000
vt 0.6954 0.3680 0.0000
vt 0.7309 0.3736 0.0000
vt 0.7245 0.3800 0.0000
vt 0.7457 0.4090 0.0000
vt 0.7365 0.4090 0.0000
vt 0.7309 0.4445 0.0000
vt 0.7245 0.4381 0.0000
vt 0.6954 0.4593 0.0000
vt 0.6954 0.4501 0.0000
vt 0.3514 0.1960 0.0000
vt 0.3514 0.2274 0.0000
vt 0.0120 0.2274 0.0000
vt 0.0120 0.1960 0.0000
vt 0.3514 0.1646 0.0000
vt 0.0120 0.1646 0.0000
vt 0.3514 0.1332 0.0000
vt 0.0120 0.1332 0.0000
vt 0.3514 0.1017 0.0000
vt 0.0120 0.1017 0.0000
vt 0.3514 0.0703 0.0000
vt 0.0120 0.0703 0.0000
vt 0.3514 0.0389 0.0000
vt 0.0120 0.0389 0.0000
vt 0.3514 0.0075 0.0000
vt 0.0120 0.0075 0.0000
vt 0.3514 0.2588 0.0000
vt 0.0120 0.2588 0.0000
# 77 texture coords

g machinegun_shell_01_uvw2
usemtl wire_086086086
s 1
f 49/101/27 50/102/28 51/103/29 52/104/30 
f 53/105/31 49/101/27 52/104/30 54/106/32 
f 55/107/33 53/105/31 54/106/32 56/108/34 
f 57/109/35 55/107/33 56/108/34 58/110/36 
f 59/111/37 57/109/35 58/110/36 60/112/38 
f 61/113/39 59/111/37 60/112/38 62/114/40 
f 63/115/41 61/116/39 62/117/40 64/118/42 
f 50/102/28 63/115/41 64/118/42 51/103/29 
f 65/119/43 66/120/43 67/121/43 68/122/43 
f 67/121/43 69/123/43 70/124/43 68/122/43 
f 70/124/43 71/125/43 68/122/43 
f 72/126/43 65/119/43 68/122/43 
s 2
f 49/127/44 53/128/44 55/129/44 63/130/44 
f 55/129/44 57/131/44 59/132/44 63/130/44 
f 59/132/44 61/133/44 63/130/44 
f 50/134/44 49/127/44 63/130/44 
s 1
f 73/135/45 74/136/46 52/104/30 51/103/29 
f 75/137/47 73/135/45 51/103/29 64/118/42 
f 76/138/48 75/137/47 64/118/42 62/117/40 
f 77/139/49 76/140/48 62/114/40 60/112/38 
f 78/141/50 77/139/49 60/112/38 58/110/36 
f 79/142/51 78/141/50 58/110/36 56/108/34 
f 80/143/52 79/142/51 56/108/34 54/106/32 
f 74/136/46 80/143/52 54/106/32 52/104/30 
s 2
f 73/144/43 81/145/43 82/146/43 74/147/43 
f 75/148/43 83/149/43 81/145/43 73/144/43 
f 76/150/43 84/151/43 83/149/43 75/148/43 
f 77/152/43 85/153/43 84/151/43 76/150/43 
f 78/154/43 86/155/43 85/153/43 77/152/43 
f 79/156/43 87/157/43 86/155/43 78/154/43 
f 80/158/43 88/159/43 87/157/43 79/156/43 
f 74/147/43 82/146/43 88/159/43 80/158/43 
s 4
f 68/160/53 71/161/54 82/162/54 81/163/53 
s 8
f 72/164/33 68/160/55 81/163/55 83/165/33 
f 65/166/56 72/164/33 83/165/33 84/167/56 
f 66/168/57 65/166/56 84/167/56 85/169/57 
f 67/170/58 66/168/57 85/169/57 86/171/58 
s 16
f 69/172/41 67/170/59 86/171/59 87/173/41 
f 70/174/60 69/172/41 87/173/41 88/175/60 
s 4
f 71/161/54 70/176/61 88/177/61 82/162/54 
# 36 polygons - 4 triangles

