# 3ds Max Wavefront OBJ Exporter v0.97b - (c)2007 guruware
# 创建的文件:31.01.2018 18:03:39

mtllib melee_weapon01_uvw2.mtl

#
# object meleeweapon01_uvw
#

v  -1.1917 -0.4882 -0.0009
v  1.1917 -0.4882 -0.0009
v  1.1917 0.4892 -0.0009
v  -1.1917 0.4892 -0.0009
v  -1.1917 0.4892 -0.2421
v  1.1917 0.4892 -0.2421
v  1.1917 -0.4882 -0.2421
v  -1.1917 -0.4882 -0.2421
v  1.5697 -0.4097 -0.0009
v  1.5697 -0.4097 -0.2421
v  1.5697 0.3232 -0.2421
v  1.5697 0.3232 -0.0009
v  -1.5697 0.3232 -0.0009
v  -1.5697 0.3232 -0.2421
v  -1.5697 -0.4097 -0.2421
v  -1.5697 -0.4097 -0.0009
v  1.3807 0.4062 -0.0009
v  1.3807 -0.4882 -0.0009
v  1.1917 -1.3088 0.1314
v  1.1917 -1.4794 -0.0392
v  1.3807 -1.4794 -0.0392
v  1.3807 -1.3088 0.1314
v  1.3807 0.4062 -0.2421
v  1.3807 -0.4882 -0.2421
v  -1.3807 0.4062 -0.0009
v  -1.3807 -0.4882 -0.0009
v  -1.3807 0.4062 -0.2421
v  -1.3807 -0.4882 -0.2421
v  -1.1917 -1.4794 -0.0392
v  -1.1917 -1.3088 0.1314
v  -1.3807 -1.3088 0.1314
v  -1.3807 -1.4794 -0.0392
v  1.1917 -0.8662 -0.0009
v  1.1917 -0.8662 -0.2421
v  1.3807 -0.8662 -0.2421
v  1.3807 -0.8662 -0.0009
v  -1.1917 -0.8662 -0.2421
v  -1.1917 -0.8662 -0.0009
v  -1.3807 -0.8662 -0.0009
v  -1.3807 -0.8662 -0.2421
v  1.1917 -1.1728 -0.1406
v  1.1917 -1.0875 0.0652
v  1.3807 -1.1728 -0.1406
v  1.3807 -1.0875 0.0652
v  -1.1917 -1.1728 -0.1406
v  -1.1917 -1.0875 0.0652
v  -1.3807 -1.0875 0.0652
v  -1.3807 -1.1728 -0.1406
v  -0.6510 0.0089 -0.4455
v  -0.9432 0.3011 -0.2424
v  -0.3588 0.3011 -0.2424
v  -0.3588 -0.2833 -0.2424
v  -0.9432 -0.2833 -0.2424
v  0.7085 0.0089 -0.4455
v  0.4163 0.3011 -0.2424
v  1.0007 0.3011 -0.2424
v  1.0007 -0.2833 -0.2424
v  0.4163 -0.2833 -0.2424
# 58 vertices

vn 0.0000 0.0000 1.0000
vn 0.0000 0.0000 -1.0000
vn 0.0000 1.0000 -0.0000
vn 0.0000 -1.0000 -0.0000
vn 1.0000 0.0000 -0.0000
vn -1.0000 0.0000 -0.0000
vn 0.0000 -0.7071 0.7071
vn 0.4020 0.9157 -0.0000
vn -0.4020 0.9157 -0.0000
vn 0.3838 -0.9234 -0.0000
vn -0.3838 -0.9234 -0.0000
vn 0.0000 -0.3142 -0.9494
vn 0.0000 0.2863 0.9581
vn 0.0000 0.9239 -0.3827
vn 0.0000 0.5706 -0.8212
vn 0.5706 0.0000 -0.8212
vn 0.0000 -0.5706 -0.8212
vn -0.5706 0.0000 -0.8212
# 18 vertex normals

vt 0.1953 0.7196 0.0000
vt 0.7097 0.7207 0.0000
vt 0.7092 0.9317 0.0000
vt 0.1949 0.9306 0.0000
vt 0.7293 0.4506 0.0000
vt 0.2150 0.4499 0.0000
vt 0.2152 0.2389 0.0000
vt 0.7296 0.2396 0.0000
vt 0.7091 0.9837 0.0000
vt 0.1947 0.9827 0.0000
vt 0.0753 0.0365 0.0000
vt 0.0775 0.5508 0.0000
vt 0.0255 0.5510 0.0000
vt 0.0233 0.0367 0.0000
vt 0.7912 0.7380 0.0000
vt 0.8433 0.7381 0.0000
vt 0.8429 0.8963 0.0000
vt 0.7908 0.8962 0.0000
vt 0.1134 0.8946 0.0000
vt 0.0613 0.8946 0.0000
vt 0.0616 0.7364 0.0000
vt 0.1137 0.7365 0.0000
vt 0.7500 0.9139 0.0000
vt 0.7505 0.7210 0.0000
vt 0.7101 0.5401 0.0000
vt 0.7102 0.4880 0.0000
vt 0.7510 0.4880 0.0000
vt 0.7508 0.5401 0.0000
vt 0.1742 0.4320 0.0000
vt 0.1745 0.2390 0.0000
vt 0.7538 0.9318 0.0000
vt 0.7537 0.9838 0.0000
vt 0.1541 0.9126 0.0000
vt 0.1545 0.7197 0.0000
vt 0.1502 0.9825 0.0000
vt 0.1503 0.9305 0.0000
vt 0.7701 0.4328 0.0000
vt 0.7704 0.2399 0.0000
vt 0.1959 0.4868 0.0000
vt 0.1958 0.5389 0.0000
vt 0.1550 0.5387 0.0000
vt 0.1551 0.4867 0.0000
vt 0.8803 0.7090 0.0000
vt 0.8308 0.6903 0.0000
vt 0.1334 0.4141 0.0000
vt 0.1337 0.2559 0.0000
vt 0.7907 0.9407 0.0000
vt 0.8428 0.9409 0.0000
vt 0.0613 0.9391 0.0000
vt 0.1133 0.9392 0.0000
vt 0.8109 0.4150 0.0000
vt 0.8111 0.2568 0.0000
vt 0.0703 0.6919 0.0000
vt 0.0119 0.7112 0.0000
vt 0.9305 0.2691 0.0000
vt 0.9002 0.1934 0.0000
vt 0.9486 0.1741 0.0000
vt 0.9788 0.2498 0.0000
vt 0.2153 0.1578 0.0000
vt 0.1745 0.1578 0.0000
vt 0.8028 0.6397 0.0000
vt 0.8085 0.7068 0.0000
vt 0.7507 0.6395 0.0000
vt 0.7099 0.6394 0.0000
vt 0.9735 0.9031 0.0000
vt 0.9416 0.9782 0.0000
vt 0.8937 0.9578 0.0000
vt 0.9256 0.8827 0.0000
vt 0.1955 0.6383 0.0000
vt 0.1546 0.6382 0.0000
vt 0.0965 0.7133 0.0000
vt 0.1026 0.6381 0.0000
vt 0.7706 0.1586 0.0000
vt 0.7298 0.1585 0.0000
vt 0.9831 0.3193 0.0000
vt 0.9350 0.3189 0.0000
vt 0.1746 0.0883 0.0000
vt 0.2154 0.0887 0.0000
vt 0.7987 0.5850 0.0000
vt 0.8215 0.6342 0.0000
vt 0.7508 0.5898 0.0000
vt 0.7100 0.5900 0.0000
vt 0.9793 0.8336 0.0000
vt 0.9313 0.8332 0.0000
vt 0.1548 0.5885 0.0000
vt 0.1956 0.5889 0.0000
vt 0.1070 0.5834 0.0000
vt 0.0837 0.6324 0.0000
vt 0.7298 0.0894 0.0000
vt 0.7706 0.0892 0.0000
vt 0.1749 0.0188 0.0000
vt 0.2156 0.0189 0.0000
vt 0.7967 0.5153 0.0000
vt 0.1093 0.5137 0.0000
vt 0.7298 0.0197 0.0000
vt 0.7706 0.0196 0.0000
vt 0.8797 0.0956 0.0000
vt 0.9462 0.1621 0.0000
vt 0.8132 0.1621 0.0000
vt 0.8132 0.0291 0.0000
vt 0.9462 0.0291 0.0000
vt 0.6326 0.1654 0.0000
vt 0.6991 0.2319 0.0000
vt 0.5661 0.2319 0.0000
vt 0.5661 0.0989 0.0000
vt 0.6991 0.0989 0.0000
# 106 texture coords

g meleeweapon01_uvw
usemtl wire_006135006
s 2
f 1/1/1 2/2/1 3/3/1 4/4/1 
s 4
f 5/5/2 6/6/2 7/7/2 8/8/2 
s 8
f 4/4/3 3/3/3 6/9/3 5/10/3 
s 32
f 2/11/4 1/12/4 8/13/4 7/14/4 
s off
f 9/15/5 10/16/5 11/17/5 12/18/5 
f 13/19/6 14/20/6 15/21/6 16/22/6 
f 17/23/1 3/3/1 2/2/1 18/24/1 
f 19/25/7 20/26/7 21/27/7 22/28/7 
f 23/29/2 24/30/2 7/7/2 6/6/2 
f 6/9/8 3/3/8 17/31/8 23/32/8 
f 25/33/1 26/34/1 1/1/1 4/4/1 
f 4/4/9 5/10/9 27/35/9 25/36/9 
f 27/37/2 5/5/2 8/8/2 28/38/2 
f 29/39/7 30/40/7 31/41/7 32/42/7 
f 12/18/1 17/23/1 18/24/1 9/15/1 
f 24/43/10 10/16/10 9/15/10 18/44/10 
f 24/30/2 23/29/2 11/45/2 10/46/2 
f 17/47/8 12/18/8 11/17/8 23/48/8 
f 26/34/1 25/33/1 13/19/1 16/22/1 
f 27/49/9 14/20/9 13/19/9 25/50/9 
f 14/51/2 27/37/2 28/38/2 15/52/2 
f 26/53/11 16/22/11 15/21/11 28/54/11 
f 33/55/6 2/56/6 7/57/6 34/58/6 
f 34/59/2 7/7/2 24/30/2 35/60/2 
f 35/61/5 24/62/5 18/24/5 36/63/5 
f 36/63/1 18/24/1 2/2/1 33/64/1 
f 37/65/5 8/66/5 1/67/5 38/68/5 
f 38/69/1 1/1/1 26/34/1 39/70/1 
f 39/70/6 26/34/6 28/71/6 40/72/6 
f 40/73/2 28/38/2 8/8/2 37/74/2 
f 41/75/6 42/76/6 33/55/6 34/58/6 
f 34/59/12 35/60/12 43/77/12 41/78/12 
f 43/79/5 35/80/5 36/63/5 44/81/5 
f 36/63/13 33/64/13 42/82/13 44/81/13 
f 45/83/5 37/65/5 38/68/5 46/84/5 
f 38/69/13 39/70/13 47/85/13 46/86/13 
f 48/87/6 47/85/6 39/70/6 40/88/6 
f 40/73/12 37/74/12 45/89/12 48/90/12 
f 43/77/12 21/91/12 20/92/12 41/78/12 
f 43/79/5 44/81/5 22/28/5 21/93/5 
f 42/82/13 19/25/13 22/28/13 44/81/13 
f 47/85/13 31/41/13 30/40/13 46/86/13 
f 31/41/6 47/85/6 48/87/6 32/94/6 
f 45/89/12 29/95/12 32/96/12 48/90/12 
s 1
f 46/84/14 42/76/14 41/75/14 45/83/14 
s 2
f 45/89/12 41/78/12 20/92/12 29/95/12 
s 1
f 29/39/7 20/26/7 19/25/7 30/40/7 
s 2
f 30/40/13 19/25/13 42/82/13 46/86/13 
s 4
f 49/97/15 50/98/15 51/99/15 
s 2
f 49/97/16 51/99/16 52/100/16 
s 16
f 49/97/17 52/100/17 53/101/17 
s 32
f 49/97/18 53/101/18 50/98/18 
s 4
f 54/102/15 55/103/15 56/104/15 
s 2
f 54/102/16 56/104/16 57/105/16 
s 16
f 54/102/17 57/105/17 58/106/17 
s 32
f 54/102/18 58/106/18 55/103/18 
# 48 polygons - 8 triangles

